<?xml version="1.0" encoding="utf-8"?>
<!-- Generator: Adobe Illustrator 16.0.0, SVG Export Plug-In . SVG Version: 6.00 Build 0)  -->
<!DOCTYPE svg PUBLIC "-//W3C//DTD SVG 1.1//EN" "http://www.w3.org/Graphics/SVG/1.1/DTD/svg11.dtd">
<svg version="1.1" id="Layer_1" xmlns="http://www.w3.org/2000/svg" xmlns:xlink="http://www.w3.org/1999/xlink" x="0px" y="0px"
	 width="64.8px" height="64.8px" viewBox="0.975 -0.025 64.8 64.8" enable-background="new 0.975 -0.025 64.8 64.8"
	 xml:space="preserve">
<path fill="#FFFFFF" d="M33.374,1.024c-17.75,0-32.144,14.394-32.144,32.147c0,14.203,9.21,26.251,21.985,30.503
	c1.607,0.293,2.194-0.698,2.194-1.55c0-0.763-0.028-2.786-0.044-5.469c-8.942,1.942-10.829-4.31-10.829-4.31
	c-1.461-3.712-3.569-4.702-3.569-4.702c-2.918-1.993,0.221-1.954,0.221-1.954c3.226,0.228,4.924,3.314,4.924,3.314
	c2.867,4.91,7.523,3.492,9.355,2.671c0.292-2.077,1.122-3.495,2.041-4.297c-7.139-0.813-14.643-3.569-14.643-15.889
	c0-3.509,1.252-6.378,3.309-8.625c-0.331-0.812-1.434-4.082,0.315-8.506c0,0,2.699-0.865,8.84,3.295
	c2.563-0.713,5.313-1.072,8.047-1.083c2.731,0.011,5.479,0.37,8.048,1.083c6.139-4.161,8.832-3.295,8.832-3.295
	c1.754,4.424,0.649,7.693,0.32,8.506c2.058,2.247,3.303,5.116,3.303,8.625c0,12.351-7.516,15.067-14.677,15.861
	c1.154,0.994,2.182,2.956,2.182,5.955c0,4.298-0.039,7.763-0.039,8.818c0,0.859,0.578,1.857,2.211,1.546
	c12.764-4.259,21.964-16.3,21.964-30.499C65.521,15.417,51.128,1.024,33.374,1.024z"/>
</svg>
