<?xml version="1.0" encoding="utf-8"?>
<!-- Generator: Adobe Illustrator 16.0.0, SVG Export Plug-In . SVG Version: 6.00 Build 0)  -->
<!DOCTYPE svg PUBLIC "-//W3C//DTD SVG 1.1//EN" "http://www.w3.org/Graphics/SVG/1.1/DTD/svg11.dtd">
<svg version="1.1" id="Layer_1" xmlns="http://www.w3.org/2000/svg" xmlns:xlink="http://www.w3.org/1999/xlink" x="0px" y="0px"
	 width="144px" height="144px" viewBox="0 0 144 144" enable-background="new 0 0 144 144" xml:space="preserve">
<rect fill="#3B4D81" width="144" height="144"/>
<g>
	<g>
		<polygon fill="#921B1D" points="72.199,76.473 64.052,67.521 70.348,62.449 78.142,71.022 		"/>
		<polygon fill="#921B1D" points="64.171,83.852 56.095,74.981 62.233,69.755 70.094,78.402 		"/>
		<polygon fill="#921B1D" points="56.024,91.326 48.317,82.857 54.256,77.41 61.97,85.879 		"/>
		<polygon fill="#921B1D" points="55.582,52.185 40.831,65.733 40.36,55.511 55.582,41.512 		"/>
		<polygon fill="#921B1D" points="55.582,66.618 42.628,78.525 41.133,69.229 55.582,55.961 		"/>
		<polygon fill="#921B1D" points="55.582,81.244 41.906,93.807 41.062,83.914 55.582,70.581 		"/>
	</g>
	<g>
		<polygon fill="#F58235" points="78.142,71.022 131.141,129.264 120.261,129.275 72.199,76.473 		"/>
		<polygon fill="#F58235" points="70.094,78.402 116.401,129.275 105.508,129.283 64.171,83.852 		"/>
		<polygon fill="#F58235" points="61.97,85.879 101.449,129.275 90.565,129.275 56.024,91.326 		"/>
		<path fill="#F58235" d="M56.024,91.326"/>
		<path fill="#F58235" d="M61.97,85.879"/>
		<polygon fill="#F58235" points="55.582,41.512 84.741,14.722 96.351,14.722 55.582,52.185 		"/>
		<polygon fill="#F58235" points="55.582,55.961 100.464,14.722 112.069,14.722 55.582,66.618 		"/>
		<polygon fill="#F58235" points="55.582,70.581 116.372,14.722 127.937,14.763 55.582,81.244 		"/>
		<rect x="12.858" y="14.717" fill="#F58235" width="9.036" height="113.857"/>
		<rect x="25.106" y="14.717" fill="#F58235" width="9.032" height="113.857"/>
		<rect x="37.5" y="14.717" fill="#F58235" width="9.036" height="113.857"/>
	</g>
</g>
</svg>
