<?xml version="1.0" encoding="utf-8"?>
<!-- Generator: Adobe Illustrator 16.0.0, SVG Export Plug-In . SVG Version: 6.00 Build 0)  -->
<!DOCTYPE svg PUBLIC "-//W3C//DTD SVG 1.1//EN" "http://www.w3.org/Graphics/SVG/1.1/DTD/svg11.dtd">
<svg version="1.1" id="Layer_1" xmlns="http://www.w3.org/2000/svg" xmlns:xlink="http://www.w3.org/1999/xlink" x="0px" y="0px"
	 width="144px" height="144px" viewBox="0 0 144 144" enable-background="new 0 0 144 144" xml:space="preserve">
<rect fill="#3B4D81" width="144" height="144"/>
<polygon fill="#F58235" points="76.954,63.152 133.764,125.29 122.791,125.298 70.936,68.575 "/>
<polygon fill="#F58235" points="68.804,70.489 118.902,125.298 107.937,125.306 62.79,75.923 "/>
<polygon fill="#F58235" points="60.562,77.941 103.846,125.298 92.88,125.298 54.543,83.355 "/>
<path fill="#F58235" d="M56.555,88.794"/>
<path fill="#F58235" d="M64.075,81.791"/>
<polyline fill="#F58235" points="52.013,42.457 87.021,10.44 98.707,10.44 52.013,53.145 "/>
<polyline fill="#F58235" points="52.013,56.927 102.853,10.44 114.536,10.44 52.013,67.611 "/>
<g>
	<polygon fill="#921B1D" points="70.936,68.575 66.179,63.369 72.511,58.291 76.954,63.152 	"/>
	<polygon fill="#921B1D" points="62.79,75.923 58.16,70.864 64.329,65.613 68.804,70.489 	"/>
	<polygon fill="#921B1D" points="54.543,83.355 50.32,78.755 56.307,73.289 60.562,77.941 	"/>
	<polygon fill="#921B1D" points="52.013,53.145 42.775,61.576 42.299,51.326 52.013,42.457 	"/>
	<polygon fill="#921B1D" points="52.013,67.611 44.593,74.4 43.084,65.094 52.013,56.927 	"/>
	<polygon fill="#921B1D" points="52.013,82.279 43.853,89.731 43.021,79.815 52.013,71.59 	"/>
</g>
<polyline fill="#F58235" points="52.013,71.59 118.887,10.44 130.535,10.469 52.013,82.279 "/>
<g>
	<rect x="14.593" y="10.43" fill="#F58235" width="9.108" height="114.163"/>
	<rect x="26.931" y="10.43" fill="#F58235" width="9.106" height="114.163"/>
	<rect x="39.428" y="10.43" fill="#F58235" width="9.106" height="114.163"/>
</g>
</svg>
