<?xml version="1.0" encoding="utf-8"?>
<!-- Generator: Adobe Illustrator 16.0.0, SVG Export Plug-In . SVG Version: 6.00 Build 0)  -->
<!DOCTYPE svg PUBLIC "-//W3C//DTD SVG 1.1//EN" "http://www.w3.org/Graphics/SVG/1.1/DTD/svg11.dtd">
<svg version="1.1" id="Layer_1" xmlns="http://www.w3.org/2000/svg" xmlns:xlink="http://www.w3.org/1999/xlink" x="0px" y="0px"
	 width="54px" height="54px" viewBox="0 0 54 54" enable-background="new 0 0 54 54" xml:space="preserve">
<rect fill="#3B4D81" width="54" height="54"/>
<g>
	<polygon fill="#F58235" points="28.839,25.227 46,48.596 42.685,48.598 27.021,27.266 	"/>
	<polygon fill="#F58235" points="26.376,27.986 41.512,48.598 38.197,48.6 24.56,30.029 	"/>
	<polygon fill="#F58235" points="23.886,30.789 36.963,48.598 33.649,48.598 22.068,32.826 	"/>
	<path fill="#F58235" d="M22.676,34.869"/>
	<path fill="#F58235" d="M24.948,32.236"/>
	<polyline fill="#F58235" points="21.304,17.443 31.879,5.403 35.41,5.403 21.304,21.463 	"/>
	<polyline fill="#F58235" points="21.304,22.886 36.662,5.403 40.191,5.403 21.304,26.903 	"/>
	<g>
		<polygon fill="#921B1D" points="27.021,27.266 25.583,25.308 27.496,23.398 28.839,25.227 		"/>
		<polygon fill="#921B1D" points="24.56,30.029 23.161,28.127 25.025,26.153 26.376,27.986 		"/>
		<polygon fill="#921B1D" points="22.068,32.826 20.792,31.094 22.601,29.039 23.886,30.789 		"/>
		<polygon fill="#921B1D" points="21.304,21.463 18.514,24.634 18.37,20.78 21.304,17.443 		"/>
		<polygon fill="#921B1D" points="21.304,26.903 19.062,29.457 18.607,25.957 21.304,22.886 		"/>
		<polygon fill="#921B1D" points="21.304,32.42 18.839,35.223 18.587,31.494 21.304,28.4 		"/>
	</g>
	<polyline fill="#F58235" points="21.304,28.4 41.506,5.403 45.024,5.414 21.304,32.42 	"/>
	<g>
		<rect x="10" y="5.4" fill="#F58235" width="2.751" height="42.932"/>
		<rect x="13.727" y="5.4" fill="#F58235" width="2.751" height="42.932"/>
		<rect x="17.502" y="5.4" fill="#F58235" width="2.751" height="42.932"/>
	</g>
</g>
</svg>
